<svg id="Layer_1" data-name="Layer 1" xmlns="http://www.w3.org/2000/svg" viewBox="0 0 755.45 755.45"><defs><style>.cls-1{fill:#fff;}.cls-2{font-size:68.91px;fill:#3d3c3c;font-family:Foglihten;}.cls-3{letter-spacing:-0.04em;}.cls-4{letter-spacing:-0.03em;}.cls-5{letter-spacing:0em;}.cls-6{font-size:24.39px;font-family:Tryst-Regular, Tryst;}.cls-6,.cls-7{fill:#454747;}.cls-8{fill:#e6b2c6;}</style></defs><rect class="cls-1" width="755.45" height="755.45"/><text class="cls-2" transform="translate(177 403.54)">Nort<tspan class="cls-3" x="138.24" y="0">h</tspan><tspan class="cls-4" x="176.76" y="0">wa</tspan><tspan class="cls-5" x="260.56" y="0" xml:space="preserve">y Clinics  </tspan></text><text class="cls-6" transform="translate(174.14 457.69)">Facial Aethetics and Dental Implantology Center</text><rect class="cls-7" x="178.24" y="422.58" width="512.16" height="2.11"/><path class="cls-8" d="M105,396.4a10.15,10.15,0,0,0,1.32-1.29,6.51,6.51,0,0,0,1-1.94c.35-1.26.16-1.59-.91-2.31a4.56,4.56,0,0,1,.39-7.83,3.28,3.28,0,0,0,1.89-3.09,3.42,3.42,0,0,0-1.93-3.24,17.44,17.44,0,0,1-8.92-11.06,27.29,27.29,0,0,1-.68-4.14A37.36,37.36,0,0,0,95,352.42a35.18,35.18,0,0,0-5.07-8.8,26.23,26.23,0,0,0-5.18-5.13,3.81,3.81,0,0,0-.37-.17,2.65,2.65,0,0,0,.12.53,39.31,39.31,0,0,1,2.85,8.69,46.78,46.78,0,0,1,1,11A50.2,50.2,0,0,1,87,369a40.81,40.81,0,0,1-3.88,10.11,65.47,65.47,0,0,1-4,6.32,44.25,44.25,0,0,1-6.06,6.63,71,71,0,0,1-8.53,6.22,39.34,39.34,0,0,0-7.66,6.8,44.07,44.07,0,0,0-6.31,9.4,38.54,38.54,0,0,0-3.14,8.43c-.5,2.13-.85,4.29-1.27,6.43-.1.53-.21,1.05-.3,1.48-.22-3.34-.34-6.78-.7-10.2-.38-3.65-.9-7.29-1.5-10.91a112.45,112.45,0,0,0-4.46-17.61c-1.65-4.82-3.57-9.55-5.52-14.26a34.33,34.33,0,0,1-2.4-18.75,33.42,33.42,0,0,1,5.76-14.25,32.76,32.76,0,0,1,11.76-10.3,32.42,32.42,0,0,1,15.42-3.69A32.08,32.08,0,0,1,75.58,333c1.38.52,2.67,1.28,4,1.81a35.43,35.43,0,0,0,7.51,2.14,31.91,31.91,0,0,0,13.34-.6c2.5-.68,4.85-1.89,7.29-2.78a42.57,42.57,0,0,1,5.48-1.75,37.49,37.49,0,0,1,6.41-.91,29.8,29.8,0,0,1,5.89.37,39.28,39.28,0,0,1,5.52,1.34,35.11,35.11,0,0,1,10.06,5.49,36.07,36.07,0,0,1,6.25,6.46,34.65,34.65,0,0,1,5.85,12.56,33.27,33.27,0,0,1-.76,18.73c-.82,2.42-2,4.73-2.8,7.15-1.3,3.71-2.51,7.46-3.67,11.22-.71,2.3-1.34,4.63-1.87,7-.59,2.59-1.09,5.2-1.52,7.82s-.81,5.25-1.06,7.89c-.31,3.18-.52,6.38-.68,9.57-.14,3-.09,5.94-.28,8.9a62.92,62.92,0,0,1-.9,8,30.13,30.13,0,0,1-2.59,8.06c-1.3,2.5-2.55,5.05-4.09,7.41a33.26,33.26,0,0,1-6.47,7.24,28.56,28.56,0,0,1-4.11,3.1,6.7,6.7,0,0,1-9.8-4.81c-.74-4-1.5-8-2.52-12s-2.31-7.68-3.55-11.5a115.93,115.93,0,0,0-5.61-13.73A8.48,8.48,0,0,0,91,422.42,8,8,0,0,0,85.61,427c-.91,1.91-1.78,3.84-2.56,5.81-1,2.49-1.84,5-2.73,7.53-.6,1.72-1.23,3.43-1.73,5.18-.72,2.55-1.37,5.13-2,7.71-.48,2-.88,4-1.31,6a5.57,5.57,0,0,0-.35,2,7.14,7.14,0,0,1-.31,2.18,5.73,5.73,0,0,1-.51,2.48c-1,1.57-2.11,3.09-4.33,3a4.41,4.41,0,0,1-3.22-1.71A31.56,31.56,0,0,1,60,456.07a31,31,0,0,1-1.4-13.42A29.41,29.41,0,0,1,62,431.71a33.35,33.35,0,0,1,5.22-7.19,36.91,36.91,0,0,1,8.69-6.39,26.93,26.93,0,0,1,3.35-1.28,34.05,34.05,0,0,1,7.66-1.62,19,19,0,0,1,2.72,0c2.21,0,4.42,0,6.61-.14a34.56,34.56,0,0,0,5.06-.78c1.87-.42,3.54-1.22,4.27-3.22a4.57,4.57,0,0,0-.2-3.86,5.39,5.39,0,0,1-.62-4,4.77,4.77,0,0,1,1.83-2.78,1.35,1.35,0,0,0,.51-1.78,3.63,3.63,0,0,0-1.78-2.08A1.67,1.67,0,0,1,105,396.4Z" transform="translate(2.45 3.1)"/></svg>